<?xml version="1.0" encoding="utf-8"?>
<svg viewBox="0 0 468 468" xmlns="http://www.w3.org/2000/svg">
  <g style="" transform="matrix(0.999778, 0, 0, 0.999778, -14.904688, -16.253387)">
    <path d="M 248.96 16.257 L 483.012 250.309 L 248.96 484.362 L 14.908 250.309 Z M 26.221 250.309 L 248.96 473.048 L 471.699 250.309 L 248.96 27.571 Z" style="fill: currentColor;"/>
    <g transform="matrix(0.707107, -0.707107, 0.707107, 0.707107, -39.561863, 323.868408)">
      <path style="fill: currentColor;" d="M 265.609 -90.787 C 265.609 -90.787 248.724 -64.716 248.608 -53.072 C 247.486 60.312 247.495 232.619 247.514 232.233 C 247.514 232.233 219.745 232.511 219.524 232.731 C 219.304 232.952 212.982 226.416 212.982 226.416 L 201.939 226.233 L 202.186 252.359 L 213.336 252.602 L 219.935 247.788 L 249.856 247.553 C 249.856 247.553 253.411 251.41 254.356 253.485 C 255.321 255.602 256.032 264.72 256.42 271.366 C 257.62 291.886 257.47 333.023 257.47 333.023 L 249.792 332.803 L 248.435 355.258 C 248.435 355.258 253.001 355.296 257.903 358.243 C 264.293 362.085 265.501 365.248 265.501 365.248"/>
      <path style="fill: currentColor;" d="M 328.894 365.199 C 328.894 365.199 312.009 339.128 311.893 327.484 C 310.771 214.1 310.78 41.793 310.799 42.179 C 310.799 42.179 283.03 41.901 282.809 41.681 C 282.589 41.46 276.267 47.996 276.267 47.996 L 265.224 48.179 L 265.471 22.053 L 276.621 21.81 L 283.22 26.624 L 313.141 26.859 C 313.141 26.859 316.696 23.002 317.641 20.927 C 318.606 18.81 319.317 9.692 319.705 3.046 C 320.905 -17.474 320.755 -58.611 320.755 -58.611 L 313.077 -58.391 L 311.72 -80.846 C 311.72 -80.846 316.286 -80.884 321.188 -83.831 C 327.578 -87.673 328.431 -90.954 328.431 -90.954" transform="matrix(-1, 0, 0, -1, 594.118011, 274.24501)"/>
    </g>
    <g transform="matrix(0.707107, 0.707107, -0.707107, 0.707107, 163.265854, -53.420902)">
      <path style="fill: currentColor;" d="M 265.609 -90.787 C 265.609 -90.787 248.724 -64.716 248.608 -53.072 C 247.486 60.312 247.495 232.619 247.514 232.233 C 247.514 232.233 219.745 232.511 219.524 232.731 C 219.304 232.952 212.982 226.416 212.982 226.416 L 201.939 226.233 L 202.186 252.359 L 213.336 252.602 L 219.935 247.788 L 249.856 247.553 C 249.856 247.553 253.411 251.41 254.356 253.485 C 255.321 255.602 256.032 264.72 256.42 271.366 C 257.62 291.886 257.47 333.023 257.47 333.023 L 249.792 332.803 L 248.435 355.258 C 248.435 355.258 253.001 355.296 257.903 358.243 C 264.293 362.085 265.525 364.986 265.525 364.986"/>
      <path style="fill: currentColor;" d="M 328.894 365.199 C 328.894 365.199 312.009 339.128 311.893 327.484 C 310.771 214.1 310.78 41.793 310.799 42.179 C 310.799 42.179 283.03 41.901 282.809 41.681 C 282.589 41.46 276.267 47.996 276.267 47.996 L 265.224 48.179 L 265.471 22.053 L 276.621 21.81 L 283.22 26.624 L 313.141 26.859 C 313.141 26.859 316.696 23.002 317.641 20.927 C 318.606 18.81 319.317 9.692 319.705 3.046 C 320.905 -17.474 320.755 -58.611 320.755 -58.611 L 313.077 -58.391 L 311.72 -80.846 C 311.72 -80.846 316.286 -80.884 321.188 -83.831 C 327.578 -87.673 328.714 -90.573 328.714 -90.573" transform="matrix(-1, 0, 0, -1, 594.118011, 274.24501)"/>
    </g>
  </g>
</svg>
